<?xml version="1.0" encoding="UTF-8"?>
<!DOCTYPE svg PUBLIC "-//W3C//DTD SVG 1.1//EN" "http://www.w3.org/Graphics/SVG/1.1/DTD/svg11.dtd">
<!-- Creator: CorelDRAW 2020 (64-Bit) -->
<svg xmlns="http://www.w3.org/2000/svg" xml:space="preserve" width="17.4639mm" height="28.2224mm" version="1.1" style="shape-rendering:geometricPrecision; text-rendering:geometricPrecision; image-rendering:optimizeQuality; fill-rule:evenodd; clip-rule:evenodd"
viewBox="0 0 1746.32 2822.13"
 xmlns:xlink="http://www.w3.org/1999/xlink"
 xmlns:xodm="http://www.corel.com/coreldraw/odm/2003">
 <defs>
  <style type="text/css">
   <![CDATA[
    .fil6 {fill:#5B1717;fill-rule:nonzero}
    .fil3 {fill:#65191A;fill-rule:nonzero}
    .fil15 {fill:#681B1D;fill-rule:nonzero}
    .fil5 {fill:#741E20;fill-rule:nonzero}
    .fil2 {fill:#812124;fill-rule:nonzero}
    .fil12 {fill:#A32127;fill-rule:nonzero}
    .fil10 {fill:#B5252B;fill-rule:nonzero}
    .fil14 {fill:#CECECE;fill-rule:nonzero}
    .fil8 {fill:#D6AF60;fill-rule:nonzero}
    .fil7 {fill:#E1D5BD;fill-rule:nonzero}
    .fil11 {fill:#E5E2CC;fill-rule:nonzero}
    .fil4 {fill:#E5E5E5;fill-rule:nonzero}
    .fil13 {fill:#EBB95C;fill-rule:nonzero}
    .fil1 {fill:#EEC36B;fill-rule:nonzero}
    .fil0 {fill:#FAEDD3;fill-rule:nonzero}
    .fil9 {fill:#FFFCE3;fill-rule:nonzero}
   ]]>
  </style>
 </defs>
 <g id="Capa_x0020_1">
  <metadata id="CorelCorpID_0Corel-Layer"/>
  <path class="fil0" d="M1206.74 637.81c17.76,2.01 36.31,-0.84 53.45,-9.27 46.4,-22.81 64.94,-77.78 41.41,-122.76 -20.97,-40.06 -68.23,-58.67 -111.1,-46.15 -0.95,-14.56 -4.89,-29.18 -12.13,-43.02 -28.54,-54.54 -97.28,-76.33 -153.53,-48.67 -56.26,27.67 -78.73,94.31 -50.2,148.85 8.73,16.68 21.24,30.28 35.99,40.36 -26.35,31.86 -32.71,76.94 -12.42,115.73 27.66,52.86 94.27,73.97 148.78,47.16 34.01,-16.72 55.27,-48.14 59.75,-82.24z"/>
  <path class="fil1" d="M1146.99 720.05c34.01,-16.72 55.27,-48.14 59.75,-82.24 17.76,2.01 36.31,-0.84 53.45,-9.27 27.82,-13.67 45.6,-38.9 50.33,-66.6 -10.72,12.43 -24.16,23.02 -40,30.81 -34.47,16.95 -73.13,17.19 -106.23,3.9 -8.5,33.75 -31.54,63.84 -66,80.79 -29.57,14.54 -62.23,16.8 -91.82,8.75 31.13,42.91 90.84,58.29 140.51,33.86z"/>
  <path class="fil0" d="M785.71 451.5l-0.58 0.11 0.55 -0.74 0.03 0.63zm101.99 96.41c8.73,0.26 17.63,-0.54 26.55,-2.49 56.86,-12.46 92.58,-67.08 79.78,-122.01 -11.95,-51.28 -61.96,-84.69 -114.82,-78.77 0.81,-8.53 0.3,-17.31 -1.75,-26.11 -10.52,-45.15 -56.93,-73.44 -103.65,-63.21 -46.61,10.21 -75.92,54.9 -65.63,99.91 -30.13,11.12 -48.04,42.21 -40.75,73.46 7.34,31.53 37.75,52.21 70.18,49.27 -18,19.53 -26.36,46.85 -19.97,74.29 10.52,45.14 56.92,73.43 103.65,63.2 35.24,-7.71 60.59,-35.15 66.41,-67.54z"/>
  <path class="fil1" d="M821.29 615.45c35.24,-7.71 60.59,-35.15 66.41,-67.54 8.73,0.26 17.63,-0.54 26.55,-2.49 56.86,-12.46 92.58,-67.08 79.78,-122.01 -2.81,-12.07 -7.76,-23.13 -14.32,-32.94 0.56,1.88 1.1,3.78 1.55,5.72 11.65,50.04 -20.88,99.79 -72.67,111.14 -20.6,4.51 -41.11,2.24 -59.12,-5.25 9.84,45.75 -20.06,90.89 -67.43,101.27 -5.4,1.18 -10.8,1.84 -16.15,2.05 -1.7,0.68 -3.4,1.34 -5.12,1.95 17.83,9.38 39.13,12.78 60.52,8.1z"/>
  <path class="fil2" d="M1720.96 900.18c0.08,-46.96 -39.12,-85.08 -87.55,-85.16 -42.33,-0.06 -77.66,28.95 -85.96,67.61 -5.94,-41.3 -42.46,-73.12 -86.7,-73.19 -48.43,-0.07 -87.76,37.93 -87.84,84.89 0,0.89 0.04,1.77 0.07,2.66l-0.15 0c0.05,-1.63 0.08,-2.53 0.08,-2.66 0.08,-46.22 -38.52,-82.42 -86.2,-82.5 -47.67,-0.07 -86.39,37.34 -86.46,83.56 0,0.45 0.02,0.89 0.03,1.33l-0.1 0c0.03,-0.88 0.07,-1.76 0.07,-2.65 0.08,-46.96 -39.12,-85.09 -87.56,-85.17 -48.43,-0.07 -87.76,37.94 -87.84,84.9 0,0.89 0.04,1.77 0.06,2.66l-0.07 0c0.01,-0.8 0.01,-1.26 0.01,-1.34 0.08,-46.22 -38.52,-83.75 -86.2,-83.83 -47.67,-0.07 -86.39,37.34 -86.46,83.56 0,0.46 0.01,0.89 0.03,1.33l-0.11 0c0.04,-0.88 0.08,-1.76 0.08,-2.65 0.08,-46.96 -39.12,-85.09 -87.56,-85.16 -48.43,-0.08 -87.76,37.93 -87.84,84.89 0,0.89 0.04,1.77 0.06,2.66l-0.1 0c0.02,-0.45 0.04,-0.89 0.04,-1.33 0.07,-46.23 -38.51,-83.76 -86.2,-83.83 -47.68,-0.08 -86.39,37.34 -86.46,83.56 0,0.09 0.01,0.54 0.04,1.33l-0.11 0c0.02,-0.88 0.07,-1.77 0.07,-2.66 0.08,-46.96 -39.13,-85.08 -87.56,-85.16 -48.44,-0.07 -87.77,37.94 -87.84,84.9 0,0.89 0.03,1.77 0.06,2.65l-0.1 0c0.01,-0.44 0.04,-0.88 0.04,-1.33 0.07,-46.22 -38.51,-83.75 -86.2,-83.83 -47.68,-0.07 -86.39,37.34 -86.47,83.56 0,6.19 94.51,1451.55 115.06,1765.69l-0.06 0.01 2.99 44.86c0.64,9.76 0.99,14.94 0.99,14.94l147.98 0.22 -0.03 -0.48 147.99 0.22c0.01,0.32 0.02,0.49 0.02,0.49l145.24 0.22 -0.01 -0.48 148 0.23 0 0.48 147.98 0.23 0.01 -0.49 147.99 0.23 -0.01 0.48 147.98 0.24 0.02 -0.49 147.99 0.23 -0.02 0.48 145.24 0.23 0.03 -0.49 0.49 0 0.06 -0.84 0.79 0 70.3 -1087.71 -0.04 0.12c25.41,-386.85 47.83,-729.02 47.83,-732.22z"/>
  <polygon class="fil3" points="1608.36,2720 1495.84,2820.79 1613.92,1000.98 1720.95,910.81 "/>
  <path class="fil0" d="M1252.72 724.42c-3.01,-19.96 -11.89,-39.32 -26.82,-55.48 -40.4,-43.71 -109.71,-47.38 -154.79,-8.2 -40.16,34.89 -47.52,91.99 -20.11,134.94 -16.6,5.42 -32.37,14.11 -46.24,26.16 -54.67,47.5 -59.26,128.96 -10.26,181.97 48.99,53 133.02,57.45 187.68,9.96 16.73,-14.54 28.74,-32.26 35.99,-51.37 44.87,19.15 99.05,12.52 137.92,-21.26 52.98,-46.03 57.44,-124.97 9.96,-176.34 -29.62,-32.03 -72.45,-45.76 -113.34,-40.39z"/>
  <path class="fil1" d="M1366.06 764.81c-29.62,-32.03 -72.45,-45.76 -113.34,-40.39 -3.01,-19.96 -11.89,-39.32 -26.82,-55.48 -24.21,-26.19 -58.82,-38 -92.36,-34.82 17.64,7.95 33.94,19.41 47.75,34.34 30.02,32.47 41.93,74.52 36.47,114.61 41.68,-0.89 83.51,15.17 113.52,47.64 25.75,27.85 38.19,62.77 37.76,97.44 40.41,-46.83 40.28,-116.54 -2.98,-163.33z"/>
  <path class="fil0" d="M797.1 1117.73c20.01,5.56 41.86,5.68 63.19,-0.87 57.72,-17.72 89.69,-77.44 71.41,-133.4 -16.27,-49.84 -66.93,-79.84 -118.6,-73.29 1.74,-16.9 0.05,-34.41 -5.57,-51.62 -22.16,-67.86 -96.86,-105.44 -166.83,-83.96 -69.99,21.49 -108.76,93.91 -86.6,161.75 6.78,20.76 18.5,38.67 33.48,52.94 -36.46,31.76 -52.52,82.37 -36.77,130.61 21.48,65.75 93.87,102.18 161.68,81.36 42.31,-12.99 72.83,-45.18 84.61,-83.53z"/>
  <path class="fil1" d="M712.49 1201.25c42.31,-12.99 72.83,-45.18 84.61,-83.53 20.01,5.56 41.86,5.68 63.19,-0.87 34.59,-10.62 59.92,-36.34 70.74,-67.28 -14.73,12.31 -32.21,22.01 -51.93,28.07 -42.87,13.15 -87.31,6.37 -122.74,-14.94 -16.32,37.2 -48.64,67.55 -91.51,80.71 -36.78,11.29 -74.72,7.91 -107.14,-6.73 27.41,54.97 92.98,83.54 154.77,64.57z"/>
  <path class="fil0" d="M263.12 874.76l-0.01 0.75 -0.82 -0.89 0.83 0.14zm157.38 -98.38c2.88,-10.75 4.43,-22.02 4.45,-33.63 0.12,-74.11 -61.75,-134.27 -138.18,-134.38 -71.36,-0.12 -130.16,52.16 -137.76,119.4 -11.05,-3.48 -22.83,-5.4 -35.08,-5.42 -62.81,-0.09 -113.81,49.2 -113.91,110.09 -0.1,60.75 50.48,110.08 113.07,110.43 5.92,40.57 41.83,71.82 85.33,71.89 43.86,0.06 80.12,-31.61 85.7,-72.67 20.58,28 54.31,46.31 92.48,46.37 62.82,0.09 113.82,-49.19 113.92,-110.09 0.07,-45.93 -28.83,-85.34 -70,-101.98z"/>
  <path class="fil1" d="M490.5 878.36c0.07,-45.93 -28.83,-85.34 -70,-101.98 2.88,-10.75 4.43,-22.02 4.45,-33.63 0.12,-74.11 -61.75,-134.27 -138.18,-134.38 -16.79,-0.03 -32.87,2.88 -47.77,8.17 2.66,-0.16 5.32,-0.27 8.02,-0.26 69.63,0.1 125.97,54.92 125.86,122.41 -0.04,26.84 -9.04,51.62 -24.2,71.75 63.43,1.12 114.44,51.33 114.34,113.06 -0.01,7.04 -0.72,13.93 -2.01,20.61 0.41,2.31 0.79,4.61 1.1,6.93 17.62,-19.39 28.35,-44.8 28.39,-72.67z"/>
  <path class="fil0" d="M849.65 849.11l-0.02 0.74 -0.82 -0.89 0.84 0.15zm157.37 -98.38c2.88,-10.75 4.43,-22.02 4.45,-33.64 0.12,-74.11 -61.75,-134.26 -138.18,-134.38 -71.36,-0.11 -130.16,52.16 -137.76,119.41 -11.05,-3.49 -22.83,-5.4 -35.07,-5.43 -62.82,-0.09 -113.82,49.2 -113.92,110.1 -0.1,60.74 50.48,110.08 113.07,110.43 5.92,40.57 41.83,71.81 85.33,71.88 43.86,0.07 80.12,-31.61 85.69,-72.67 20.59,28.01 54.32,46.31 92.49,46.37 62.82,0.1 113.82,-49.19 113.92,-110.09 0.08,-45.93 -28.84,-85.33 -70,-101.97z"/>
  <path class="fil1" d="M1077.02 852.7c0.08,-45.93 -28.84,-85.33 -70,-101.97 2.88,-10.75 4.43,-22.02 4.45,-33.64 0.12,-74.11 -61.75,-134.26 -138.18,-134.38 -16.79,-0.03 -32.87,2.88 -47.77,8.17 2.65,-0.16 5.32,-0.27 8.02,-0.26 69.63,0.1 125.97,54.91 125.86,122.42 -0.04,26.83 -9.04,51.61 -24.2,71.75 63.42,1.11 114.44,51.31 114.34,113.05 -0.01,7.04 -0.72,13.93 -2,20.62 0.4,2.3 0.78,4.61 1.09,6.92 17.62,-19.38 28.34,-44.8 28.39,-72.67z"/>
  <path class="fil0" d="M517.21 577.02l-0.19 0.64c-0.16,-0.32 -0.33,-0.63 -0.5,-0.95l0.69 0.31zm158.96 -50.69c4.99,-8.67 8.94,-18.08 11.66,-28.12 17.33,-64.05 -22.18,-129.59 -88.26,-146.39 -61.68,-15.69 -124.69,16.67 -146.88,73.16 -8.74,-5.43 -18.49,-9.66 -29.07,-12.35 -54.3,-13.81 -109.86,17.67 -124.1,70.31 -14.21,52.5 18.06,106.22 72.11,120.2 -4.31,36.38 19.48,71.24 57.08,80.8 37.92,9.64 76.63,-9.83 91,-44.12 11.28,28.72 36.2,51.91 69.2,60.31 54.3,13.8 109.86,-17.68 124.1,-70.32 10.74,-39.7 -5.1,-80.09 -36.83,-103.47z"/>
  <path class="fil1" d="M713 629.79c10.74,-39.7 -5.1,-80.09 -36.83,-103.47 4.99,-8.67 8.94,-18.08 11.66,-28.12 17.33,-64.05 -22.18,-129.59 -88.26,-146.39 -14.51,-3.7 -29.1,-4.69 -43.21,-3.38 2.33,0.45 4.67,0.94 7,1.53 60.19,15.31 96.17,75.01 80.39,133.35 -6.27,23.2 -19.81,42.66 -37.6,56.76 54.58,14.82 87.03,69.39 72.6,122.74 -1.65,6.1 -3.87,11.89 -6.53,17.4 -0.18,2.08 -0.39,4.16 -0.66,6.23 19.74,-12.92 34.92,-32.56 41.44,-56.65z"/>
  <path class="fil0" d="M1585.76 778.92c-6.36,-22.66 -21.65,-42.97 -44.35,-55.53 -45.36,-25.1 -103.11,-9.8 -128.98,34.17 -17.1,29.04 -16.01,63.33 -0.23,90.49 -22.06,11.03 -41.21,28.13 -54.43,50.59 -36.39,61.81 -14.2,140.51 49.55,175.78 63.76,35.29 144.93,13.78 181.32,-48.03 7.59,-12.89 12.59,-26.5 15.24,-40.31 48.54,12.31 101.43,-7.78 127.48,-52.04 31.13,-52.89 12.15,-120.24 -42.4,-150.41 -32.87,-18.2 -71.15,-18.72 -103.21,-4.71z"/>
  <path class="fil1" d="M1585.76 778.92c-6.36,-22.66 -21.65,-42.97 -44.35,-55.53 -32.9,-18.2 -72.31,-15.14 -101.36,4.69 23.66,-5.6 49.48,-2.8 72.29,9.82 35.6,19.69 53.73,57.63 49.05,94.74 29.84,-18.24 68.82,-20.34 101.6,-2.2 47.32,26.18 63.79,84.61 36.78,130.48 -2.89,4.9 -6.17,9.43 -9.75,13.63 16.67,-9.43 31.09,-23.09 41.34,-40.51 31.14,-52.89 12.16,-120.24 -42.39,-150.41 -32.87,-18.2 -71.15,-18.72 -103.21,-4.71z"/>
  <path class="fil0" d="M613.63 1029.77c20.01,5.55 41.86,5.67 63.19,-0.87 57.72,-17.72 89.69,-77.45 71.42,-133.4 -16.28,-49.84 -66.94,-79.85 -118.6,-73.3 1.73,-16.9 0.05,-34.4 -5.58,-51.62 -22.16,-67.85 -96.86,-105.44 -166.84,-83.95 -69.98,21.49 -108.75,93.91 -86.59,161.75 6.79,20.75 18.5,38.66 33.48,52.93 -36.46,31.76 -52.53,82.38 -36.76,130.62 21.47,65.75 93.86,102.17 161.67,81.35 42.31,-12.99 72.83,-45.18 84.61,-83.52z"/>
  <path class="fil1" d="M529.02 1113.29c42.31,-12.99 72.83,-45.18 84.61,-83.52 20.01,5.55 41.86,5.67 63.19,-0.87 34.6,-10.62 59.93,-36.34 70.74,-67.29 -14.73,12.32 -32.21,22.01 -51.93,28.07 -42.87,13.16 -87.31,6.38 -122.74,-14.93 -16.32,37.2 -48.64,67.54 -91.5,80.71 -36.79,11.29 -74.74,7.91 -107.15,-6.74 27.41,54.97 92.99,83.54 154.77,64.57z"/>
  <polygon class="fil4" points="1497.65,2792.76 1497.65,2792.76 1502.28,2721.16 1502.3,2721.16 "/>
  <path class="fil5" d="M1502.3 2721.16l-0.02 0 63.85 -988.08c0,0 -0.01,0.04 -0.04,0.12 10.92,-166.3 21.3,-324.4 29.57,-450.8l-93.36 1438.76zm111.62 -1720.18c0.01,-4.41 -0.33,-8.75 -1,-12.99 4.85,0.83 9.72,1.34 14.59,1.55l-13.59 11.44z"/>
  <path class="fil6" d="M1513.44 2792.78l-15.79 -0.02 4.65 -71.6 93.36 -1438.76c10.97,-167.62 18.26,-279.59 18.26,-281.42l0 0 13.59 -11.44c1.43,0.06 2.85,0.09 4.29,0.11 -4.82,75.48 -24.64,377.96 -46.73,714.22l0.04 -0.13 -70.3 1087.72 -0.79 0 -0.05 0.83 -0.49 0 -0.04 0.49z"/>
  <path class="fil7" d="M1093.25 997.52l-0.09 0c0.03,-0.88 0.07,-1.76 0.07,-2.65 0.05,-30.71 -16.69,-57.64 -41.84,-72.62 7.52,-8.92 13.63,-19 17.99,-29.92 20.33,11.76 35.34,31.27 40.69,54.32 -10.56,13.86 -16.81,30.99 -16.84,49.54 0,0.45 0.01,0.89 0.02,1.33z"/>
  <path class="fil7" d="M1051.39 922.25c0,-0.01 -0.01,-0.01 -0.02,-0.02 7.52,-8.92 13.63,-18.99 18,-29.91 0,0 0.01,0 0.01,0.01 -4.36,10.92 -10.47,21 -17.99,29.92z"/>
  <path class="fil5" d="M923.46 964.68c-2.36,-4.22 -5,-8.24 -7.89,-12.05 3.68,1.65 7.46,3.12 11.34,4.39 -1.27,2.48 -2.42,5.05 -3.45,7.66zm-51.09 -45.95c-0.66,-0.29 -1.31,-0.57 -1.97,-0.84 0.08,-0.49 0.15,-0.99 0.21,-1.48 0.58,0.78 1.16,1.55 1.76,2.32z"/>
  <path class="fil7" d="M917.9 997.25l-0.08 0c0,-0.81 0.01,-1.25 0.01,-1.32 0.03,-19.93 -7.12,-38.24 -19.09,-52.64 5.3,3.56 10.93,6.69 16.83,9.34 2.89,3.81 5.53,7.83 7.89,12.05 -3.62,9.31 -5.61,19.38 -5.63,29.91 0,0.9 0.04,1.78 0.07,2.66zm-40.24 -72.19c-2.5,-1.54 -5.1,-2.96 -7.77,-4.25 0.19,-0.97 0.36,-1.94 0.51,-2.92 0.66,0.27 1.31,0.55 1.97,0.84 1.68,2.17 3.45,4.28 5.29,6.33z"/>
  <path class="fil7" d="M926.91 957.02c-3.88,-1.27 -7.66,-2.74 -11.34,-4.39 -5.9,-2.65 -11.53,-5.78 -16.83,-9.34 -5.94,-7.13 -13.06,-13.31 -21.08,-18.23 -1.84,-2.05 -3.61,-4.16 -5.29,-6.33 -0.6,-0.77 -1.18,-1.54 -1.76,-2.32 -0.06,0.49 -0.13,0.99 -0.21,1.48 -0.15,0.98 -0.32,1.95 -0.51,2.92 -11.52,-5.56 -24.51,-8.69 -38.26,-8.71 -0.04,0 -0.09,0 -0.14,0 -24.37,0 -46.39,9.79 -62.1,25.55 12.12,-32.03 43.85,-54.89 81.08,-54.89 0.05,0 0.1,0 0.14,0 40.15,0.06 73.85,26.68 83.45,62.68 -2.68,3.65 -5.08,7.52 -7.15,11.58z"/>
  <path class="fil7" d="M745.2 996.99l-0.1 0c0.04,-0.89 0.08,-1.77 0.08,-2.66 0.01,-5.27 -0.48,-10.43 -1.42,-15.44 0.95,0.51 1.91,0.99 2.88,1.46 -0.95,4.96 -1.45,10.08 -1.46,15.31 0,0.44 0.01,0.89 0.02,1.33z"/>
  <path class="fil7" d="M746.64 980.35c-0.97,-0.47 -1.93,-0.95 -2.88,-1.46 -0.34,-1.81 -0.74,-3.6 -1.19,-5.37 7.55,-15.26 11.37,-32.27 10.73,-49.67 3.92,6.89 6.89,14.37 8.72,22.27 -7.58,9.95 -12.94,21.59 -15.38,34.23z"/>
  <path class="fil4" d="M73.32 936.58c0.09,-0.26 0.19,-0.52 0.29,-0.78 0.12,0.04 0.24,0.09 0.36,0.13 -0.22,0.22 -0.44,0.43 -0.65,0.65z"/>
  <path class="fil7" d="M221.8 996.18l-0.09 0c0.01,-0.44 0.02,-0.88 0.03,-1.33 0.07,-46.22 -38.52,-83.75 -86.2,-83.82 -0.04,0 -0.09,0 -0.14,0 -24.04,0 -45.79,9.52 -61.44,24.9 -0.12,-0.04 -0.24,-0.09 -0.36,-0.13 12.33,-31.63 43.86,-54.11 80.78,-54.11 0.05,0 0.1,0 0.14,0 40.15,0.06 73.85,26.68 83.45,62.68 -10.19,13.86 -16.2,30.83 -16.23,49.16 0,0.89 0.04,1.77 0.06,2.65z"/>
  <path class="fil5" d="M1265.88 995.13c0.02,-7.76 -1.06,-15.25 -3.1,-22.33 2.05,0.12 4.09,0.18 6.14,0.2 -1.97,7.06 -3.02,14.48 -3.04,22.13l0 0z"/>
  <path class="fil7" d="M1268.92 973c-2.05,-0.02 -4.09,-0.08 -6.14,-0.2 -10.05,-35.04 -43.43,-60.11 -83.09,-60.17 -0.05,0 -0.1,0 -0.14,0 -24.38,0 -46.4,9.8 -62.11,25.56 12.11,-32.04 43.85,-54.89 81.08,-54.89 0.05,0 0.1,0 0.14,0 40.49,0.06 74.43,26.17 83.7,62.34 -6.06,8.16 -10.66,17.4 -13.44,27.36z"/>
  <path class="fil7" d="M375.37 937.6c-16.04,-17.73 -39.57,-28.93 -65.8,-28.97 -0.05,0 -0.1,0 -0.14,0 -24.87,0 -47.33,10.04 -63.29,26.17 12.38,-32.41 44.55,-55.5 82.27,-55.5 0.04,0 0.09,0 0.14,0 26.86,0.04 50.88,11.78 66.94,30.25 -8.02,8.44 -14.79,17.89 -20.12,28.05z"/>
  <path class="fil7" d="M1290.29 936.4c11.17,-29.23 38.45,-50.89 71.37,-54.85 0.85,2.49 1.62,5 2.32,7.52 -2.19,3.07 -4.27,6.26 -6.21,9.56 -2.25,3.82 -4.27,7.7 -6.08,11.63 -24.11,0.49 -45.84,10.42 -61.4,26.14z"/>
  <path class="fil8" d="M1363.98 889.07c-0.7,-2.52 -1.47,-5.03 -2.32,-7.52 2.84,-0.33 5.72,-0.55 8.63,-0.62 -2.19,2.61 -4.3,5.33 -6.31,8.14z"/>
  <path class="fil7" d="M942.24 935.87c12.38,-32.4 44.54,-55.5 82.26,-55.5 0.05,0 0.1,0 0.15,0 8.32,0.01 16.38,1.15 24,3.26 0.6,4.65 0.9,9.38 0.89,14.19 -0.01,7.04 -0.72,13.93 -2,20.62 0.1,0.6 0.21,1.2 0.31,1.8 -12.51,-6.69 -26.89,-10.51 -42.18,-10.53 -0.04,0 -0.09,0 -0.14,0 -24.87,0 -47.33,10.03 -63.29,26.16z"/>
  <path class="fil5" d="M1265.95 997.79l-0.15 0c0.05,-1.63 0.08,-2.54 0.08,-2.66 0,0.89 0.04,1.78 0.07,2.66z"/>
  <path class="fil8" d="M1051.37 922.23c-1.16,-0.69 -2.33,-1.35 -3.52,-1.99 -0.1,-0.6 -0.21,-1.2 -0.31,-1.8 1.28,-6.69 1.99,-13.58 2,-20.62 0.01,-4.81 -0.29,-9.54 -0.89,-14.19 7.35,2.04 14.3,4.98 20.72,8.69 -4.37,10.92 -10.48,20.99 -18,29.91z"/>
  <path class="fil7" d="M1631.79 989.65c-1.44,-0.02 -2.86,-0.05 -4.29,-0.11 -4.87,-0.21 -9.74,-0.72 -14.59,-1.55 -6.38,-40.8 -42.68,-72.1 -86.56,-72.17 -0.05,0 -0.1,0 -0.14,0 -24.84,0 -47.27,10.03 -63.23,26.13 12.39,-32.39 44.51,-55.46 82.21,-55.46 0.04,0 0.09,0 0.14,0 48.44,0.07 87.64,38.19 87.56,85.16 0,0.41 -0.38,6.64 -1.1,18zm-191.38 -6.33c-5.98,-41.25 -42.5,-73.01 -86.7,-73.08 -0.05,0 -0.1,0 -0.14,0 -0.63,0 -1.26,0.01 -1.89,0.02 1.81,-3.93 3.83,-7.81 6.08,-11.63 1.94,-3.3 4.02,-6.49 6.21,-9.56 2.01,-2.81 4.12,-5.53 6.31,-8.14 0.76,-0.01 1.51,-0.02 2.27,-0.02 0.04,0 0.1,0 0.14,0 41.78,0.06 76.67,28.45 85.43,66.38 -8.62,10.29 -14.8,22.58 -17.71,36.03z"/>
  <path class="fil7" d="M397.17 996.45l-0.11 0c0.02,-0.88 0.07,-1.76 0.07,-2.66 0.04,-21.52 -8.18,-41.19 -21.76,-56.19 5.33,-10.16 12.1,-19.61 20.12,-28.05 8.89,10.23 15.35,22.53 18.48,36.03 -10.56,13.86 -16.82,30.99 -16.84,49.54 0,0.09 0.01,0.54 0.04,1.33zm171.71 -13.33c-6.06,-40.42 -41.92,-71.5 -85.3,-71.56 -0.04,0 -0.09,0 -0.12,0 -24.39,0 -46.41,9.8 -62.12,25.56 12.12,-32.04 43.85,-54.9 81.08,-54.9 0.05,0 0.1,0 0.14,0 40.15,0.06 73.85,26.68 83.45,62.68 -7.16,9.75 -12.25,21.02 -14.66,33.22 -0.79,1.68 -1.62,3.35 -2.47,5zm173.68 -9.6c-0.01,-0.01 -0.01,-0.01 -0.01,-0.02 1.91,-3.86 3.57,-7.83 4.99,-11.89 -2.24,1.88 -4.56,3.7 -6.93,5.45 -11.67,-33.6 -44.4,-57.83 -83,-57.89 -0.04,0 -0.1,0 -0.14,0 -24.87,0 -47.32,10.04 -63.29,26.17 12.38,-32.41 44.54,-55.5 82.26,-55.5 0.04,0 0.1,0 0.14,0 33.06,0.05 61.8,17.81 76.71,44.01 0.64,17.4 -3.18,34.41 -10.73,49.67z"/>
  <path class="fil8" d="M569.85 996.72l-0.09 0c0.02,-0.44 0.03,-0.88 0.03,-1.33 0,-4.17 -0.3,-8.27 -0.9,-12.27 0.85,-1.65 1.68,-3.32 2.47,-5 -1.02,5.16 -1.56,10.49 -1.57,15.94 0,0.89 0.04,1.77 0.06,2.66zm172.71 -23.22c-0.56,-2.18 -1.21,-4.33 -1.94,-6.44 2.37,-1.75 4.69,-3.57 6.93,-5.45 -1.42,4.06 -3.08,8.03 -4.99,11.89z"/>
  <path class="fil9" d="M1441.19 998.06c0.04,-0.89 0.08,-1.76 0.08,-2.66 0.08,-46.96 -39.13,-85.08 -87.56,-85.16 -48.44,-0.07 -87.76,37.93 -87.84,84.89 0,0.89 0.04,1.78 0.07,2.66l-172.79 -0.27c0.03,-0.88 0.07,-1.76 0.07,-2.65 0.07,-46.96 -39.13,-85.09 -87.56,-85.16 -48.44,-0.07 -87.76,37.93 -87.84,84.88 0,0.9 0.04,1.78 0.07,2.66l-172.8 -0.26c0.04,-0.89 0.08,-1.77 0.08,-2.66 0.08,-46.95 -39.13,-85.09 -87.56,-85.16 -48.43,-0.07 -87.76,37.94 -87.84,84.89 0,0.89 0.04,1.77 0.06,2.66l-172.78 -0.27c0.02,-0.88 0.07,-1.76 0.07,-2.66 0.08,-46.95 -39.13,-85.09 -87.56,-85.16 -48.44,-0.07 -87.76,37.94 -87.84,84.9 0,0.89 0.04,1.77 0.06,2.65l-170.44 -0.26 119.66 1823.67 1323.98 2.04 116.88 -1823.31 -170.67 -0.26z"/>
  <path class="fil10" d="M221.66 997.51c0.03,-0.88 0.07,-1.77 0.08,-2.66 0.07,-46.22 -38.52,-83.75 -86.2,-83.82 -47.68,-0.08 -86.39,37.33 -86.46,83.56 -0.02,6.93 118.96,1825.48 118.96,1825.48l147.99 0.23 -94.38 -1822.79z"/>
  <path class="fil10" d="M569.72 998.04c0.02,-0.88 0.06,-1.76 0.07,-2.65 0.07,-46.22 -38.52,-83.76 -86.2,-83.83 -47.68,-0.07 -86.39,37.34 -86.46,83.56 -0.01,6.05 66.89,1825.42 66.89,1825.42l145.24 0.21 -39.55 -1822.71z"/>
  <path class="fil10" d="M831.64 912.1c-47.67,-0.08 -86.39,37.34 -86.46,83.56 0,0.89 0.03,1.77 0.06,2.66l12.02 1822.66 147.99 0.23c0,0 12.57,-1820.13 12.58,-1825.28 0.08,-46.23 -38.52,-83.76 -86.2,-83.83z"/>
  <path class="fil10" d="M1179.69 912.63c-47.68,-0.07 -86.4,37.34 -86.47,83.56 0,0.9 0.04,1.77 0.06,2.66l-40.05 1822.59 147.98 0.23c0,0 64.65,-1820.61 64.66,-1826.54 0.08,-46.22 -38.51,-82.43 -86.19,-82.5z"/>
  <path class="fil10" d="M1613.92 1000.98c0.08,-46.95 -39.12,-85.08 -87.56,-85.16 -47.97,-0.07 -86.99,37.22 -87.8,83.57l-89.36 1822.5 145.25 0.23c0,0 119.45,-1813.74 119.46,-1821.14z"/>
  <path class="fil11" d="M909.06 2268.83c1.65,-239.74 3.58,-518.9 5.21,-754.66 59.26,6.22 115.44,19.06 166.86,37.41l-15.04 684.7c-48.81,16.04 -101.62,27.19 -157.03,32.55zm-155.44 -0.42c-55.5,-5.65 -108.29,-17.12 -157.06,-33.48l-14.82 -682.71c51.41,-18.53 107.6,-31.53 166.91,-37.88l4.97 754.07zm-314.03 -112.62c-95.2,-68.77 -153.71,-162.38 -153.55,-265.46 0.16,-95.75 50.93,-183.17 134.63,-250 6.13,167.08 12.75,347.39 18.92,515.46z"/>
  <path class="fil12" d="M596.56 2234.93c-58.96,-19.77 -112.04,-46.68 -156.96,-79.14 -6.17,-168.07 -12.79,-348.38 -18.92,-515.46 45.06,-35.98 99.68,-65.99 161.06,-88.12l14.82 682.71z"/>
  <path class="fil12" d="M833.45 2272.45c-0.42,0 -0.8,0 -1.23,0 -26.69,-0.05 -52.94,-1.42 -78.6,-4.04l-4.97 -754.07c27.25,-2.92 55.16,-4.43 83.58,-4.43 0.43,0 0.82,0 1.24,0 27.47,0.04 54.43,1.49 80.81,4.26 -1.63,235.76 -3.56,514.92 -5.21,754.66 -24.72,2.38 -49.95,3.62 -75.62,3.62z"/>
  <path class="fil11" d="M1224.8 2157.3c5.99,-168.89 12.41,-349.97 18.36,-517.84 85.08,67.36 136.64,155.79 136.48,252.55 -0.17,103.24 -59.17,196.78 -154.84,265.29z"/>
  <path class="fil12" d="M1066.1 2236.28l15.04 -684.7c61.72,22.01 116.64,51.94 162.02,87.89 -5.95,167.87 -12.37,348.95 -18.36,517.84 -45.42,32.52 -99.12,59.4 -158.7,78.98z"/>
  <path class="fil13" d="M1376.42 1868.11c-0.34,210.57 -245.43,380.88 -547.43,380.42 -301.99,-0.47 -546.52,-171.54 -546.18,-382.11 0.35,-210.56 245.44,-380.88 547.43,-380.42 302,0.47 546.52,171.54 546.18,382.11z"/>
  <polygon class="fil4" points="1495.84,2820.79 1495.04,2820.79 1496.84,2792.75 1497.65,2792.76 "/>
  <polygon class="fil14" points="1497.65,2792.76 1496.84,2792.75 1501.43,2721.16 1502.28,2721.16 "/>
  <path class="fil15" d="M1502.28 2721.16l-0.85 0 11.91 -185.88c14.18,-215.46 34.26,-520.61 52.75,-802.08 0.03,-0.08 0.04,-0.12 0.04,-0.12l-63.85 988.08z"/>
  <path class="fil11" d="M1495.04 2820.79l-0.49 0c0.87,-13.22 8.18,-124.21 18.79,-285.51l-11.91 185.88 -4.59 71.59 -1.8 28.04zm-145.76 -0.22l-148 -0.23c0.72,-20.26 9.57,-269.52 20.5,-577.62 65.65,-66.49 120.32,-132.57 165.35,-194.11l-37.85 771.96zm-296.01 -0.46l-148.01 -0.22c0.1,-14.3 0.99,-142.76 2.25,-325.43 55.95,-35 107.65,-71.77 155.32,-109.44l-9.56 435.08zm-296.02 -0.45l-148.01 -0.23 -3.77 -173.88c52.62,-20.45 102.72,-42.67 150.2,-66.23l1.58 240.34zm-293.28 -0.45l-148 -0.23 -4.43 -85.42c51.19,-11.14 100.48,-23.89 147.89,-38.03 2.59,70.69 4.24,115.56 4.54,123.68z"/>
  <path class="fil4" d="M167.13 2806.15l-3.1 -45.86c0.07,-0.01 0.04,-0.01 0.1,-0.02 1.33,20.2 2.34,35.72 3,45.88z"/>
  <path class="fil12" d="M315.97 2818.98l-147.97 -0.23 -0.86 -12.6c-0.66,-10.16 -1.67,-25.68 -3,-45.88 50.78,-7.42 99.97,-16.39 147.4,-26.71l4.43 85.42z"/>
  <path class="fil12" d="M609.24 2819.43l-145.26 -0.22c-0.3,-8.12 -1.95,-52.99 -4.54,-123.68 50.81,-15.15 99.41,-31.87 146.03,-49.99l3.77 173.88z"/>
  <path class="fil12" d="M905.25 2819.89l-148 -0.23 -1.58 -240.34c53.8,-26.69 104.33,-55.13 151.83,-84.86 -1.26,182.66 -2.15,311.13 -2.25,325.43z"/>
  <path class="fil12" d="M1201.27 2820.34l-148 -0.23 9.56 -435.08c58.94,-46.55 111.78,-94.53 158.94,-142.3 -10.93,308.1 -19.78,557.36 -20.5,577.62z"/>
  <path class="fil12" d="M1494.55 2820.79l-145.27 -0.22 37.85 -771.96c127.18,-173.75 177.3,-310.82 178.96,-315.41 -18.49,281.47 -38.57,586.62 -52.75,802.08 -10.61,161.3 -17.92,272.29 -18.79,285.51z"/>
  <path class="fil0" d="M1387.19 740.76c3.76,17 12.54,33.17 26.33,46.24 37.34,35.37 97.18,34.7 133.65,-1.5 32.49,-32.24 35.47,-81.77 9.36,-117.21 13.96,-5.58 27.01,-13.94 38.23,-25.07 44.24,-43.89 43.4,-114.23 -1.87,-157.1 -45.27,-42.89 -117.82,-42.07 -162.05,1.81 -13.53,13.43 -22.83,29.34 -27.94,46.18 -39.72,-13.99 -85.95,-5.29 -117.4,25.92 -42.87,42.53 -42.06,110.7 1.81,152.25 27.36,25.92 65.01,35.36 99.88,28.48z"/>
  <path class="fil1" d="M1287.32 712.28c27.36,25.92 65.01,35.36 99.88,28.48 3.76,17 12.54,33.17 26.33,46.24 22.38,21.2 52.84,29.43 81.51,24.85 -15.64,-5.86 -30.34,-14.82 -43.1,-26.9 -27.73,-26.27 -40.45,-61.8 -38.12,-96.57 -35.81,3.07 -72.73,-8.44 -100.47,-34.71 -23.79,-22.55 -36.54,-51.89 -38.21,-81.75 -32,42.53 -27.79,102.49 12.18,140.35z"/>
  <path class="fil0" d="M1228.71 323.36c4.43,14.65 13.19,28.26 26.14,38.84 35.04,28.63 87.39,24.3 116.92,-9.67 26.31,-30.26 25.62,-73.82 0.4,-103.22 11.86,-5.76 22.73,-13.88 31.81,-24.34 35.81,-41.19 30.4,-102.73 -12.09,-137.43 -42.5,-34.73 -105.97,-29.47 -141.77,11.72 -10.95,12.6 -18.03,27.11 -21.39,42.17 -35.71,-9.76 -75.61,0.75 -101.07,30.04 -34.7,39.92 -29.46,99.56 11.71,133.2 25.69,20.98 59.29,26.89 89.35,18.69z"/>
  <path class="fil1" d="M1139.36 304.67c25.69,20.98 59.29,26.89 89.35,18.69 4.43,14.65 13.19,28.26 26.14,38.84 21,17.16 48.22,22.46 73.02,16.66 -14.09,-4.16 -27.56,-11.08 -39.53,-20.86 -26.02,-21.27 -39.53,-51.57 -39.8,-82.17 -31.15,4.92 -64.25,-2.84 -90.28,-24.11 -22.33,-18.25 -35.45,-43.15 -38.9,-69.18 -25.19,39.24 -17.51,91.47 20,122.13z"/>
  <path class="fil0" d="M252.58 198.27l-0.57 0.11 0.54 -0.74 0.03 0.63zm102 96.42c8.73,0.25 17.63,-0.55 26.55,-2.5 56.86,-12.46 92.58,-67.08 79.78,-122.01 -11.95,-51.28 -61.96,-84.69 -114.82,-78.77 0.81,-8.52 0.29,-17.31 -1.75,-26.11 -10.52,-45.14 -56.93,-73.44 -103.65,-63.21 -46.61,10.21 -75.92,54.89 -65.63,99.92 -30.13,11.11 -48.04,42.2 -40.75,73.45 7.34,31.53 37.75,52.21 70.18,49.27 -18.01,19.53 -26.36,46.85 -19.97,74.29 10.52,45.14 56.92,73.44 103.65,63.2 35.24,-7.71 60.59,-35.15 66.41,-67.53z"/>
  <path class="fil1" d="M288.17 362.22c35.24,-7.71 60.59,-35.15 66.41,-67.53 8.73,0.25 17.63,-0.55 26.55,-2.5 56.86,-12.46 92.58,-67.08 79.78,-122.01 -2.81,-12.07 -7.76,-23.13 -14.32,-32.94 0.56,1.89 1.1,3.79 1.55,5.72 11.65,50.04 -20.88,99.79 -72.67,111.13 -20.59,4.51 -41.12,2.25 -59.12,-5.24 9.84,45.75 -20.06,90.9 -67.43,101.27 -5.4,1.18 -10.8,1.84 -16.15,2.05 -1.7,0.68 -3.41,1.34 -5.12,1.95 17.83,9.38 39.14,12.79 60.52,8.1z"/>
 </g>
</svg>
